<svg xmlns="http://www.w3.org/2000/svg" viewBox="0 0 512 512" width="512" height="512">
  <!-- Background circle with Chinese red -->
  <circle cx="256" cy="256" r="240" fill="#dc2626" stroke="#ffffff" stroke-width="12"/>
  
  <!-- Great Wall detailed silhouette -->
  <path d="M60 350 L80 340 L100 345 L120 335 L140 340 L160 330 L180 335 L200 325 L220 330 L240 320 L260 325 L280 315 L300 320 L320 310 L340 315 L360 305 L380 310 L400 300 L420 305 L440 295 L460 300" 
        stroke="#ffffff" stroke-width="8" fill="none" stroke-linecap="round"/>
  
  <!-- Traditional Chinese architecture (multiple levels) -->
  <g fill="#ffffff">
    <!-- Main pagoda structure -->
    <path d="M180 200 L200 180 L220 190 L240 170 L260 190 L280 180 L300 200 L280 210 L260 200 L240 210 L220 200 L200 210 Z"/>
    <!-- Second level -->
    <path d="M200 160 L220 150 L240 140 L260 150 L280 160 L260 170 L240 160 L220 170 Z"/>
    <!-- Third level -->
    <path d="M220 130 L240 120 L260 130 L240 140 Z"/>
  </g>
  
  <!-- Mountain ranges -->
  <path d="M40 350 L80 320 L120 340 L160 310 L200 330 L240 300 L280 320 L320 290 L360 310 L400 280 L440 300 L480 350" 
        fill="#ffffff" opacity="0.2"/>
  <path d="M60 350 L100 330 L140 340 L180 320 L220 330 L260 310 L300 320 L340 300 L380 310 L420 290 L460 300 L500 350" 
        fill="#ffffff" opacity="0.15"/>
  
  <!-- Chinese character elements (stylized 山 mountain) -->
  <g transform="translate(240,240)" fill="#ffffff">
    <rect x="0" y="0" width="6" height="32" rx="3"/>
    <rect x="16" y="0" width="6" height="32" rx="3"/>
    <rect x="32" y="0" width="6" height="32" rx="3"/>
    <rect x="-4" y="20" width="46" height="6" rx="3"/>
  </g>
  
  <!-- Large location pin -->
  <circle cx="256" cy="120" r="24" fill="#ffffff"/>
  <circle cx="256" cy="120" r="12" fill="#dc2626"/>
  
  <!-- Travel elements and stars -->
  <g fill="#ffffff" opacity="0.7">
    <circle cx="350" cy="120" r="4"/>
    <circle cx="380" cy="140" r="3"/>
    <circle cx="400" cy="110" r="3.5"/>
    <circle cx="420" cy="130" r="2.5"/>
    
    <circle cx="160" cy="120" r="4"/>
    <circle cx="130" cy="140" r="3"/>
    <circle cx="110" cy="110" r="3.5"/>
    <circle cx="90" cy="130" r="2.5"/>
  </g>
  
  <!-- Decorative border elements -->
  <circle cx="256" cy="256" r="240" fill="none" stroke="#ffffff" stroke-width="4" opacity="0.3"/>
  <circle cx="256" cy="256" r="220" fill="none" stroke="#ffffff" stroke-width="2" opacity="0.2"/>
</svg>