<svg xmlns="http://www.w3.org/2000/svg" viewBox="0 0 128 128" width="128" height="128">
  <!-- Background circle with Chinese red -->
  <circle cx="64" cy="64" r="60" fill="#dc2626" stroke="#ffffff" stroke-width="4"/>
  
  <!-- Great Wall silhouette -->
  <path d="M20 85 L25 80 L30 82 L35 78 L40 80 L45 76 L50 78 L55 74 L60 76 L65 72 L70 74 L75 70 L80 72 L85 68 L90 70 L95 66 L100 68 L105 64 L108 66" 
        stroke="#ffffff" stroke-width="3" fill="none" stroke-linecap="round"/>
  
  <!-- Traditional Chinese architecture (pagoda-style roof) -->
  <path d="M45 50 L50 45 L55 47 L60 42 L65 47 L70 45 L75 50 L70 52 L65 50 L60 52 L55 50 L50 52 Z" 
        fill="#ffffff"/>
  
  <!-- Mountain silhouettes -->
  <path d="M15 85 L25 75 L35 80 L45 70 L55 75 L65 65 L75 70 L85 60 L95 65 L105 55 L115 60 L125 85" 
        fill="#ffffff" opacity="0.3"/>
  
  <!-- Chinese character elements (stylized) -->
  <g transform="translate(58,58)" fill="#ffffff">
    <!-- Simplified mountain character (山) style -->
    <rect x="0" y="0" width="2" height="12" rx="1"/>
    <rect x="6" y="0" width="2" height="12" rx="1"/>
    <rect x="12" y="0" width="2" height="12" rx="1"/>
    <rect x="-2" y="8" width="18" height="2" rx="1"/>
  </g>
  
  <!-- Location pin accent -->
  <circle cx="64" cy="35" r="8" fill="#ffffff"/>
  <circle cx="64" cy="35" r="4" fill="#dc2626"/>
</svg>