<svg xmlns="http://www.w3.org/2000/svg" viewBox="0 0 180 180" width="180" height="180">
  <!-- Background with rounded corners for iOS -->
  <rect x="0" y="0" width="180" height="180" rx="40" ry="40" fill="#dc2626"/>
  
  <!-- Great Wall silhouette -->
  <path d="M25 125 L35 120 L45 123 L55 118 L65 121 L75 116 L85 119 L95 114 L105 117 L115 112 L125 115 L135 110 L145 113 L155 108" 
        stroke="#ffffff" stroke-width="4" fill="none" stroke-linecap="round"/>
  
  <!-- Traditional Chinese architecture -->
  <path d="M70 75 L80 65 L90 70 L100 60 L110 70 L120 65 L130 75 L120 80 L110 75 L100 80 L90 75 L80 80 Z" 
        fill="#ffffff"/>
  
  <!-- Mountain silhouettes -->
  <path d="M20 125 L35 115 L50 120 L65 110 L80 115 L95 105 L110 110 L125 100 L140 105 L155 95 L170 125" 
        fill="#ffffff" opacity="0.25"/>
  
  <!-- Chinese elements -->
  <g transform="translate(82,82)" fill="#ffffff">
    <rect x="0" y="0" width="3" height="16" rx="1.5"/>
    <rect x="8" y="0" width="3" height="16" rx="1.5"/>
    <rect x="16" y="0" width="3" height="16" rx="1.5"/>
    <rect x="-2" y="10" width="23" height="3" rx="1.5"/>
  </g>
  
  <!-- Location pin -->
  <circle cx="100" cy="45" r="10" fill="#ffffff"/>
  <circle cx="100" cy="45" r="5" fill="#dc2626"/>
  
  <!-- Decorative elements -->
  <g fill="#ffffff" opacity="0.6">
    <circle cx="140" cy="50" r="3"/>
    <circle cx="150" cy="65" r="2"/>
    <circle cx="160" cy="45" r="2.5"/>
    
    <circle cx="40" cy="50" r="3"/>
    <circle cx="30" cy="65" r="2"/>
    <circle cx="20" cy="45" r="2.5"/>
  </g>
</svg>